<?xml version="1.0" encoding="UTF-8" standalone="no"?>
<svg
   version="1.1"
   id="Layer_1"
   x="0px"
   y="0px"
   width="64"
   height="64"
   viewBox="332 315 379 379"
   preserveAspectRatio="xMidYMid meet"
   enable-background="new 332 315 379 379"
   xml:space="preserve"
   sodipodi:docname="logo.svg"
   inkscape:version="1.4.4 (dcaf3e7d9e, 2026-05-05)"
   xmlns:inkscape="http://www.inkscape.org/namespaces/inkscape"
   xmlns:sodipodi="http://sodipodi.sourceforge.net/DTD/sodipodi-0.dtd"
   xmlns="http://www.w3.org/2000/svg"
   xmlns:svg="http://www.w3.org/2000/svg"><defs
   id="defs2"><linearGradient
     id="rgb-thirds"
     gradientUnits="userSpaceOnUse"
     x1="0"
     y1="315"
     x2="0"
     y2="694">
     <stop offset="0" stop-color="#ef3340" />
     <stop offset="0.333333" stop-color="#ef3340" />
     <stop offset="0.333333" stop-color="#00a651" />
     <stop offset="0.666667" stop-color="#00a651" />
     <stop offset="0.666667" stop-color="#0067c5" />
     <stop offset="1" stop-color="#0067c5" />
   </linearGradient></defs><sodipodi:namedview
   id="namedview2"
   pagecolor="#ffffff"
   bordercolor="#666666"
   borderopacity="1.0"
   inkscape:showpageshadow="2"
   inkscape:pageopacity="0.0"
   inkscape:pagecheckerboard="0"
   inkscape:deskcolor="#d1d1d1"
   inkscape:zoom="0.47070312"
   inkscape:cx="595.91701"
   inkscape:cy="390.90456"
   inkscape:window-width="1235"
   inkscape:window-height="1060"
   inkscape:window-x="0"
   inkscape:window-y="0"
   inkscape:window-maximized="1"
   inkscape:current-layer="Layer_1" />
<path
   fill="url(#rgb-thirds)"
   opacity="1.000000"
   stroke="none"
   d=" M677.044067,484.911499   C660.687744,510.508881 637.725769,523.416565 607.586182,523.398010   C560.601074,523.369019 513.615295,523.276794 466.631256,523.506592   C452.143951,523.577393 437.672028,524.007141 423.178802,523.375000   C390.196136,521.936462 361.675507,496.411102 356.905396,463.776428   C350.841309,422.289337 376.042755,383.921875 416.584381,373.451477   C421.968018,372.061035 427.555908,370.944733 433.294128,370.953735   C492.108734,371.045959 550.923645,370.973053 609.738159,371.071503   C647.556702,371.134796 676.130432,393.594452 684.685852,430.403656   C689.063599,449.238464 686.368713,467.444031 677.044067,484.911499  M516.500000,403.096802   C488.834534,403.151062 461.161713,402.833557 433.505920,403.379272   C412.078827,403.802032 393.401276,420.551849 389.394409,441.663574   C384.306488,468.471313 400.062012,494.633270 426.208191,502.478790   C430.208710,503.679230 434.325836,505.241669 438.698883,504.340393   C438.778107,502.742157 437.646118,502.443237 436.907013,501.893188   C419.016541,488.580017 413.072174,471.981567 418.856323,450.583893   C424.055725,431.349274 440.812195,419.254791 457.662933,418.903717   C492.980652,418.167908 528.323853,418.618286 563.656433,418.670044   C570.177185,418.679596 575.121033,422.498840 577.226990,428.593353   C581.181519,440.037720 573.528259,450.198456 560.687012,450.234039   C530.187744,450.318573 499.688110,450.257416 469.188629,450.274139   C466.531830,450.275604 463.885803,450.215576 461.243011,450.866302   C452.955414,452.906860 447.069580,459.249481 447.505096,465.859833   C447.988464,473.196594 454.553223,479.746033 462.740936,480.717834   C471.828857,481.796448 480.936157,482.738739 490.051941,483.550507   C523.707642,486.547577 557.366394,489.512329 591.033203,492.380768   C599.119263,493.069702 607.109131,494.084076 615.376831,492.743408   C649.975952,487.132965 666.368713,446.907959 644.867188,419.266174   C636.789307,408.881500 625.926270,403.177460 612.497620,403.158478   C580.831726,403.113708 549.165894,403.115173 516.500000,403.096802  z"
   id="path1" />
<path
   fill="url(#rgb-thirds)"
   opacity="1.000000"
   stroke="none"
   d=" M361.903442,545.048706   C365.992859,535.899414 371.725128,528.401184 378.700348,521.813660   C380.320251,520.283752 381.978607,518.900757 384.378723,520.611633   C393.635773,527.210449 403.969513,531.167358 415.143219,533.049683   C415.757904,533.153198 416.319580,533.571777 417.905243,534.307129   C415.366455,535.691650 413.472717,536.750427 411.555817,537.765564   C397.551697,545.181213 388.680298,556.333374 386.598358,572.322083   C384.927216,585.156372 392.267883,604.874939 410.252045,612.321777   C406.582642,605.057007 403.279266,598.305603 402.203033,590.643188   C398.087799,561.343628 420.238739,535.279175 447.980927,534.756042   C484.962402,534.058777 521.967224,534.585693 558.962036,534.623230   C569.260193,534.633667 575.849731,540.743103 575.984253,550.242188   C576.115356,559.504272 568.927185,566.255615 558.639954,566.268555   C523.478271,566.312683 488.316437,566.252747 453.154755,566.292725   C444.015747,566.303101 437.032684,571.077026 434.138123,579.001404   C429.443390,591.853821 439.126862,606.099426 453.077240,606.639893   C459.567352,606.891418 466.073639,606.745056 472.572601,606.744507   C517.732910,606.740845 562.893494,606.825073 608.053345,606.681763   C635.089966,606.595947 654.593628,580.497070 645.888489,552.172241   C644.007812,546.052734 640.858276,540.586670 636.835388,535.601257   C635.829834,534.355103 634.318787,533.335449 634.358093,531.446228   C635.167664,530.215942 636.479126,529.864685 637.727783,529.422974   C644.676697,526.965149 651.331238,523.849487 657.176941,519.359375   C661.056396,516.379578 663.333862,517.231262 666.004761,521.016724   C673.070068,531.030396 677.455872,542.080811 679.237671,554.097046   C682.577148,576.617920 676.805298,596.777161 662.005066,613.999390   C648.897034,629.252563 632.040771,638.113831 611.813660,638.221680   C546.991211,638.567444 482.165527,638.479065 417.341705,638.315674   C386.784790,638.238647 360.596680,614.235657 356.506775,583.903625   C354.688995,570.422668 356.549347,557.760010 361.903442,545.048706  z"
   id="path2" />
</svg>
